<?xml version="1.0" encoding="UTF-8" standalone="no"?>
<!DOCTYPE svg PUBLIC "-//W3C//DTD SVG 1.1//EN" "http://www.w3.org/Graphics/SVG/1.1/DTD/svg11.dtd">
<svg width="100%" height="100%" viewBox="0 0 79 128" version="1.1" xmlns="http://www.w3.org/2000/svg" xmlns:xlink="http://www.w3.org/1999/xlink" xml:space="preserve" xmlns:serif="http://www.serif.com/" style="fill-rule:evenodd;clip-rule:evenodd;stroke-linejoin:round;stroke-miterlimit:2;">
    <g transform="matrix(3.125,0,0,3.125,0,0)">
        <g transform="matrix(1,0,0,1,-33.9258,-23.083)">
            <path d="M36.004,63.967L36.004,59.967L56.834,59.967L56.834,63.967L36.004,63.967ZM36.004,58.967L36.004,54.967L56.834,54.967L56.834,58.967L36.004,58.967ZM36.004,53.967L36.004,49.967L40.108,49.967C36.41,47.796 33.926,43.778 33.926,39.185C33.926,37.853 34.135,36.57 34.521,35.366C35.346,36.373 36.403,37.182 37.61,37.712C38.514,43.227 40.373,47.669 42.722,49.967L50.116,49.967C52.464,47.669 54.323,43.227 55.228,37.712C56.434,37.182 57.491,36.373 58.317,35.366C58.703,36.57 58.912,37.853 58.912,39.185C58.912,43.778 56.427,47.796 52.729,49.967L56.834,49.967L56.834,53.967L36.004,53.967ZM46.419,40.637C46.419,38.852 45.974,37.17 45.189,35.696C44.01,36.592 42.54,37.124 40.946,37.124C37.072,37.124 33.926,33.978 33.926,30.103C33.926,27.965 34.884,26.049 36.393,24.761C35.489,24.298 34.66,23.732 33.926,23.083L40.984,23.083C43.18,23.095 45.139,24.117 46.419,25.708L46.449,25.671C47.729,24.101 49.675,23.095 51.854,23.083L58.912,23.083C58.178,23.732 57.349,24.298 56.445,24.761C57.954,26.049 58.912,27.965 58.912,30.103C58.912,33.978 55.766,37.124 51.891,37.124C50.298,37.124 48.828,36.592 47.649,35.696C46.864,37.17 46.419,38.852 46.419,40.637L46.419,40.649L46.419,40.637ZM40.946,26.178C43.112,26.178 44.871,27.937 44.871,30.103C44.871,32.27 43.112,34.028 40.946,34.028C38.78,34.028 37.021,32.27 37.021,30.103C37.021,27.937 38.78,26.178 40.946,26.178ZM51.891,26.178C49.725,26.178 47.966,27.937 47.966,30.103C47.966,32.27 49.725,34.028 51.891,34.028C54.058,34.028 55.817,32.27 55.817,30.103C55.817,27.937 54.058,26.178 51.891,26.178Z"/>
        </g>
    </g>
</svg>
