<?xml version="1.0" encoding="UTF-8" standalone="no"?>
<!DOCTYPE svg PUBLIC "-//W3C//DTD SVG 1.1//EN" "http://www.w3.org/Graphics/SVG/1.1/DTD/svg11.dtd">
<svg width="100%" height="100%" viewBox="0 0 163 27" version="1.1" xmlns="http://www.w3.org/2000/svg" xmlns:xlink="http://www.w3.org/1999/xlink" xml:space="preserve" xmlns:serif="http://www.serif.com/" style="fill-rule:evenodd;clip-rule:evenodd;stroke-linejoin:round;stroke-miterlimit:2;">
    <g transform="matrix(3.125,0,0,3.125,0,0)">
        <g transform="matrix(1.06321,0,0,1.06321,-8.28045,-33.4099)">
            <path d="M9.613,33.165C9.996,33.165 10.288,33.283 10.488,33.519C10.688,33.755 10.788,34.082 10.788,34.499L10.788,37.59L10.505,37.59L10.505,34.54C10.505,33.79 10.199,33.415 9.588,33.415C9.277,33.415 9.002,33.5 8.763,33.669C8.524,33.839 8.294,34.085 8.071,34.407L8.071,37.59L7.788,37.59L7.788,31.474L8.071,31.424L8.071,34.065C8.494,33.465 9.008,33.165 9.613,33.165Z" style="fill-rule:nonzero;"/>
            <path d="M15.571,35.232C15.571,35.354 15.566,35.465 15.555,35.565L12.555,35.565C12.583,36.182 12.73,36.644 12.996,36.953C13.263,37.261 13.613,37.415 14.046,37.415C14.28,37.415 14.485,37.379 14.663,37.307C14.841,37.235 15.035,37.118 15.246,36.957L15.396,37.157C15.196,37.329 14.988,37.458 14.771,37.544C14.555,37.63 14.313,37.674 14.046,37.674C13.496,37.674 13.062,37.478 12.742,37.086C12.423,36.694 12.263,36.151 12.263,35.457C12.263,34.99 12.333,34.585 12.471,34.24C12.61,33.896 12.806,33.63 13.059,33.444C13.312,33.258 13.608,33.165 13.946,33.165C14.48,33.165 14.884,33.35 15.159,33.719C15.434,34.089 15.571,34.593 15.571,35.232ZM15.288,35.132C15.288,34.604 15.178,34.187 14.959,33.882C14.74,33.576 14.408,33.424 13.963,33.424C13.569,33.424 13.241,33.583 12.98,33.903C12.719,34.222 12.577,34.696 12.555,35.324L15.288,35.324L15.288,35.132Z" style="fill-rule:nonzero;"/>
            <path d="M19.588,36.665C19.588,36.932 19.616,37.119 19.671,37.228C19.727,37.336 19.821,37.418 19.955,37.474L19.888,37.674C19.71,37.624 19.577,37.54 19.488,37.424C19.399,37.307 19.349,37.132 19.338,36.899C19.027,37.415 18.566,37.674 17.955,37.674C17.544,37.674 17.221,37.557 16.988,37.324C16.755,37.09 16.638,36.779 16.638,36.39C16.638,35.946 16.792,35.603 17.101,35.361C17.409,35.119 17.827,34.999 18.355,34.999L19.305,34.999L19.305,34.524C19.305,34.146 19.224,33.868 19.063,33.69C18.902,33.512 18.624,33.424 18.23,33.424C17.896,33.424 17.502,33.512 17.046,33.69L16.971,33.457C17.433,33.262 17.858,33.165 18.246,33.165C18.708,33.165 19.046,33.276 19.263,33.499C19.48,33.721 19.588,34.054 19.588,34.499L19.588,36.665ZM17.971,37.415C18.555,37.415 18.999,37.135 19.305,36.574L19.305,35.249L18.413,35.249C17.946,35.249 17.584,35.344 17.326,35.536C17.067,35.728 16.938,36.01 16.938,36.382C16.938,36.71 17.03,36.964 17.213,37.144C17.396,37.325 17.649,37.415 17.971,37.415Z" style="fill-rule:nonzero;"/>
            <path d="M23.121,33.165C23.627,33.165 24.012,33.357 24.276,33.74C24.54,34.124 24.671,34.674 24.671,35.39C24.671,36.107 24.533,36.667 24.255,37.069C23.977,37.472 23.58,37.674 23.063,37.674C22.78,37.674 22.527,37.611 22.305,37.486C22.083,37.361 21.902,37.199 21.763,36.999L21.763,39.207L21.48,39.257L21.48,33.257L21.721,33.257L21.746,33.907C21.919,33.679 22.12,33.499 22.351,33.365C22.581,33.232 22.838,33.165 23.121,33.165ZM23.046,37.415C23.48,37.415 23.81,37.242 24.038,36.894C24.266,36.547 24.38,36.046 24.38,35.39C24.38,34.74 24.271,34.25 24.055,33.919C23.838,33.589 23.521,33.424 23.105,33.424C22.816,33.424 22.569,33.492 22.363,33.628C22.158,33.764 21.958,33.962 21.763,34.224L21.763,36.665C22.102,37.165 22.53,37.415 23.046,37.415Z" style="fill-rule:nonzero;"/>
            <path d="M29.646,37.59L28.771,32.999L27.871,37.59L26.48,37.59L25.438,31.832L26.53,31.832L27.263,36.715L28.205,31.832L29.371,31.832L30.296,36.715L31.096,31.832L32.138,31.832L31.08,37.59L29.646,37.59Z" style="fill-rule:nonzero;"/>
            <rect x="32.946" y="31.832" width="1.108" height="5.758" style="fill-rule:nonzero;"/>
            <path d="M37.063,31.707C37.469,31.707 37.821,31.765 38.121,31.882C38.421,31.999 38.702,32.176 38.963,32.415L38.405,33.049C38.205,32.876 38.002,32.75 37.796,32.669C37.591,32.589 37.369,32.549 37.13,32.549C36.863,32.549 36.648,32.608 36.484,32.728C36.32,32.847 36.238,33.015 36.238,33.232C36.238,33.376 36.27,33.496 36.334,33.59C36.398,33.685 36.513,33.774 36.68,33.857C36.846,33.94 37.094,34.032 37.421,34.132C37.988,34.31 38.415,34.53 38.701,34.794C38.987,35.058 39.13,35.443 39.13,35.949C39.13,36.293 39.042,36.599 38.867,36.865C38.692,37.132 38.441,37.34 38.113,37.49C37.785,37.64 37.396,37.715 36.946,37.715C36.508,37.715 36.115,37.644 35.767,37.503C35.42,37.361 35.121,37.168 34.871,36.924L35.455,36.274C35.877,36.668 36.366,36.865 36.921,36.865C37.238,36.865 37.494,36.79 37.688,36.64C37.883,36.49 37.98,36.279 37.98,36.007C37.98,35.84 37.946,35.703 37.88,35.594C37.813,35.486 37.699,35.389 37.538,35.303C37.377,35.217 37.144,35.126 36.838,35.032C36.227,34.843 35.785,34.615 35.513,34.349C35.241,34.082 35.105,33.732 35.105,33.299C35.105,32.982 35.188,32.704 35.355,32.465C35.521,32.226 35.753,32.04 36.051,31.907C36.348,31.774 36.685,31.707 37.063,31.707Z" style="fill-rule:nonzero;"/>
            <path d="M41.488,31.832C42.383,31.832 43.098,32.035 43.634,32.44C44.17,32.846 44.438,33.593 44.438,34.682C44.438,35.749 44.174,36.5 43.646,36.936C43.119,37.372 42.449,37.59 41.638,37.59L40.071,37.59L40.071,31.832L41.488,31.832ZM41.171,36.765L41.713,36.765C42.202,36.765 42.585,36.614 42.863,36.311C43.141,36.008 43.28,35.465 43.28,34.682C43.28,34.137 43.209,33.717 43.067,33.419C42.926,33.122 42.74,32.921 42.509,32.815C42.278,32.71 42.002,32.657 41.68,32.657L41.171,32.657L41.171,36.765Z" style="fill-rule:nonzero;"/>
            <path d="M47.68,31.707C48.196,31.707 48.644,31.824 49.021,32.057C49.399,32.29 49.69,32.632 49.892,33.082C50.095,33.532 50.196,34.074 50.196,34.707C50.196,35.335 50.094,35.874 49.888,36.324C49.683,36.774 49.391,37.118 49.013,37.357C48.635,37.596 48.191,37.715 47.68,37.715C47.163,37.715 46.716,37.599 46.338,37.365C45.96,37.132 45.669,36.79 45.463,36.34C45.258,35.89 45.155,35.349 45.155,34.715C45.155,34.093 45.258,33.555 45.463,33.103C45.669,32.65 45.962,32.304 46.342,32.065C46.723,31.826 47.169,31.707 47.68,31.707ZM47.68,32.549C47.235,32.549 46.896,32.722 46.663,33.069C46.43,33.417 46.313,33.965 46.313,34.715C46.313,36.154 46.769,36.874 47.68,36.874C48.124,36.874 48.462,36.701 48.692,36.357C48.923,36.012 49.038,35.462 49.038,34.707C49.038,33.957 48.923,33.41 48.692,33.065C48.462,32.721 48.124,32.549 47.68,32.549Z" style="fill-rule:nonzero;"/>
            <path d="M55.53,37.59L55.38,35.182C55.33,34.321 55.305,33.637 55.305,33.132L55.305,32.832L54.255,36.965L53.213,36.965L52.096,32.824C52.108,33.19 52.113,33.468 52.113,33.657C52.113,34.162 52.096,34.682 52.063,35.215L51.921,37.59L50.855,37.59L51.313,31.832L52.73,31.832L53.755,35.865L54.721,31.832L56.155,31.832L56.605,37.59L55.53,37.59Z" style="fill-rule:nonzero;"/>
        </g>
    </g>
</svg>
